<svg width="532" height="359" viewBox="0 0 532 359" fill="none" xmlns="http://www.w3.org/2000/svg">
<g clip-path="url(#clip0_2_112)">
<path fill-rule="evenodd" clip-rule="evenodd" d="M0 0H532V359H0V0Z" fill="white"/>
<path fill-rule="evenodd" clip-rule="evenodd" d="M53.9463 64.1319C75.2615 109.337 94.6392 154.919 117.064 199.752L118.725 196.951L116.233 79.6369C114.572 74.9677 110.973 69.5498 102.668 68.9892C103.223 67.3074 101.285 65.0668 104.329 64.1338C115.678 64.5062 128.137 63.2007 138.658 65.2549C141.426 72.9134 125.093 69.1773 125.093 76.4632V198.639L126.478 291.667C124.814 292.788 122.324 292.976 120.111 292.227L101.84 255.051L43.7041 129.141C39.8291 120.922 38.1676 112.329 30.9696 105.045C30.4176 162.393 31.2456 220.867 33.1858 278.214C33.7378 282.324 38.9956 286.249 44.5348 287.37C47.5818 286.435 48.1338 288.675 47.5818 289.985V291.665L14.0841 292.225C12.7014 291.104 13.5321 289.424 13.2561 287.929C17.6831 287.184 22.1129 285.498 24.6051 282.513L26.2666 269.621L22.1129 70.4829C19.3446 67.6799 4.39664 72.7234 8.54763 64.6906L11.0399 63.5713L53.9463 64.1319Z" fill="#9753EF" fill-opacity="0.9"/>
<path fill-rule="evenodd" clip-rule="evenodd" d="M217.554 99.6246C240.81 139.228 246.346 187.238 237.487 232.446C232.505 255.047 227.799 277.84 201.5 293.903C196.239 295.399 189.32 295.959 183.229 294.838C149.731 279.145 146.963 251.124 140.043 226.091C132.848 183.873 133.955 137.172 157.762 100.183C164.406 92.7112 171.604 82.9966 186.276 82.436C201.776 82.2516 210.632 91.78 217.554 99.6246ZM494.108 87.8558C496.598 90.2844 499.09 94.2067 503.796 94.7673C508.778 92.1525 505.731 83.1847 514.869 85.6134C515.978 105.789 516.53 127.271 514.038 146.885C512.653 147.445 511.822 146.51 510.991 145.951C510.715 127.271 503.52 110.459 492.447 94.7655C487.46 90.0944 479.988 85.239 471.126 87.2933C460.884 91.7762 457.564 99.809 458.394 108.214C476.389 166.312 556.945 219.178 509.33 283.628C507.113 287.735 499.642 290.54 494.106 292.78C484.413 294.46 475.277 292.406 467.806 288.483C463.1 285.682 461.715 280.827 455.905 279.892C451.199 283.254 452.303 290.914 443.998 291.1C442.618 268.682 442.618 245.332 443.998 222.728C447.045 221.793 447.6 224.223 447.873 225.529C451.199 248.882 450.09 275.033 479.71 289.605C488.29 291.475 496.874 288.86 501.304 283.628C512.377 266.629 502.134 247.573 494.108 231.88C466.423 189.661 424.623 142.402 454.241 92.7093C457.566 86.919 466.699 83.5554 475.004 82.4342C482.757 82.0654 488.572 84.8665 494.108 87.8558ZM338.808 147.447H335.482C331.607 127.645 339.639 103.174 313.057 91.0313C311.953 90.6569 310.847 90.2844 309.188 90.4707L306.693 92.1525L308.36 286.807C312.235 289.608 319.433 288.303 324.412 287.928C324.967 289.05 326.628 289.795 325.797 291.104C305.313 293.16 282.888 291.849 261.297 292.225C259.914 291.48 259.635 290.545 259.635 289.61C265.172 286.06 274.862 292.225 277.352 286.249L274.859 92.1525C272.088 88.4164 267.937 92.1525 264.614 92.1525C243.575 106.164 248.284 127.273 247.729 146.886C246.065 147.074 244.682 148.943 243.02 147.447C241.635 127.271 242.466 105.601 242.19 85.6134L244.679 85.0528L338.805 85.6134L338.808 147.447ZM429.605 147.447L426.285 146.886C423.238 127.645 432.095 104.108 406.35 92.1525C400.813 91.78 390.016 87.8558 388.082 93.0874L389.743 184.624C391.959 187.05 395.553 184.624 398.6 184.624C410.501 173.788 404.967 157.908 406.353 144.271C407.462 143.15 409.124 143.15 410.503 143.711C411.613 173.285 411.613 202.874 410.503 232.448C409.124 232.818 408.293 231.883 407.183 231.513C406.628 218.25 409.4 204.053 401.647 192.656C399.157 190.23 394.452 188.732 390.574 190.041L388.912 191.163L389.743 286.25C397.769 289.24 405.795 285.69 412.717 283.636C434.866 270.183 429.881 247.394 432.652 228.712C434.868 228.341 436.248 229.276 436.803 230.395C434.038 251.691 438.465 269.252 435.972 290.547C406.188 291.486 376.371 291.859 346.555 291.668V287.932C350.985 288.867 361.509 289.242 358.738 283.636L356.248 91.035C352.092 87.6714 341.576 93.6499 344.347 86.1777L346.558 85.0565L429.611 85.6171V147.447H429.605Z" fill="#9753EF" fill-opacity="0.9"/>
<path fill-rule="evenodd" clip-rule="evenodd" d="M198.453 92.1525L202.328 102.241L203.989 175.47L205.651 275.037C203.713 280.831 203.713 287.929 194.302 290.543C186.273 292.41 179.075 288.113 177.692 283.632L173.538 261.027L172.156 110.46C174.924 102.24 171.049 91.2194 184.89 87.2952C190.979 85.9878 195.406 89.1651 198.453 92.1525Z" fill="white"/>
</g>
<defs>
<clipPath id="clip0_2_112">
<rect width="532" height="359" fill="white"/>
</clipPath>
</defs>
</svg>
