<svg width="96" height="92" viewBox="0 0 96 92" fill="none" xmlns="http://www.w3.org/2000/svg">
<path d="M23.7165 90.9703C23.3133 90.9862 22.911 90.9224 22.5325 90.7825C22.1541 90.6427 21.807 90.4295 21.5111 90.1552C21.2152 89.8809 20.9764 89.5509 20.8083 89.1841C20.6402 88.8173 20.5461 88.4209 20.5315 88.0177L17.698 15.8751C17.682 15.4717 17.7458 15.069 17.8856 14.6903C18.0254 14.3115 18.2385 13.964 18.5128 13.6676C18.787 13.3713 19.117 13.1319 19.4838 12.9632C19.8506 12.7945 20.2471 12.6998 20.6506 12.6845L89.1889 10.0153C89.5923 9.99934 89.9949 10.0631 90.3737 10.2029C90.7525 10.3427 91.1 10.5558 91.3963 10.8301C91.6927 11.1043 91.932 11.4343 92.1007 11.8011C92.2694 12.1679 92.3641 12.5644 92.3795 12.9678L95.1904 84.5438C95.2272 85.5109 94.8782 86.4531 94.2204 87.1631C93.5625 87.873 92.6496 88.2925 91.6824 88.3294L23.7165 90.9703Z" fill="#68E1FD"/>
<path d="M23.5975 91.5427C22.6562 91.5433 21.7514 91.1785 21.0738 90.5252C20.3962 89.8719 19.9986 88.981 19.9648 88.0404L17.1313 15.8977C17.0945 14.933 17.442 13.9931 18.0976 13.2844C18.7532 12.5757 19.6632 12.1561 20.6279 12.1178L89.1889 9.45421C89.6665 9.43447 90.1433 9.50919 90.592 9.67408C91.0406 9.83896 91.4523 10.0908 91.8035 10.4151C92.1546 10.7394 92.4384 11.1298 92.6383 11.564C92.8383 11.9981 92.9506 12.4675 92.9689 12.9452L95.7571 84.5437C95.7985 85.6609 95.3952 86.7488 94.6356 87.5689C93.876 88.3891 92.8221 88.8745 91.7051 88.9188L23.7391 91.5653L23.5975 91.5427ZM89.3362 10.582H89.2342L20.6959 13.2512C20.0319 13.2777 19.4055 13.5664 18.9541 14.054C18.5026 14.5416 18.2628 15.1883 18.2874 15.8524L21.0926 88.0007C21.105 88.3295 21.1825 88.6526 21.3207 88.9512C21.4588 89.2499 21.6548 89.5181 21.8973 89.7405C22.3874 90.19 23.0349 90.4282 23.6995 90.4036L91.6654 87.757C92.4813 87.7246 93.2509 87.3698 93.8055 86.7706C94.3601 86.1714 94.6543 85.3766 94.6237 84.5607L91.8354 12.9905C91.8106 12.344 91.5365 11.7322 91.0706 11.2832C90.6048 10.8342 89.9832 10.583 89.3362 10.582Z" fill="#093F68"/>
<path d="M74.6357 84.7195H16.3435C15.5289 84.7195 14.7476 84.3959 14.1716 83.8198C13.5956 83.2438 13.2719 82.4625 13.2719 81.6479V9.44857C13.2712 9.045 13.3501 8.64525 13.5042 8.27225C13.6583 7.89925 13.8846 7.56034 14.1699 7.27497C14.4553 6.9896 14.7942 6.76338 15.1672 6.60928C15.5402 6.45518 15.9399 6.37624 16.3435 6.37699H84.9159C85.3192 6.37699 85.7186 6.45644 86.0913 6.6108C86.464 6.76516 86.8026 6.99141 87.0878 7.27663C87.373 7.56186 87.5993 7.90047 87.7536 8.27313C87.908 8.64579 87.9875 9.04521 87.9875 9.44857V70.682L74.6357 84.7195Z" fill="white"/>
<path d="M74.6357 85.2862H16.3435C15.3785 85.2847 14.4534 84.9011 13.7705 84.2192C13.0876 83.5374 12.7026 82.6129 12.6996 81.6479V9.44857C12.7026 8.48357 13.0876 7.55904 13.7705 6.87721C14.4534 6.19539 15.3785 5.81177 16.3435 5.81027H84.9159C85.8803 5.81177 86.8049 6.19557 87.4869 6.87756C88.1689 7.55955 88.5527 8.48409 88.5542 9.44857V70.682C88.5536 70.8279 88.4967 70.9679 88.3955 71.073L75.0437 85.1105C74.991 85.1657 74.9277 85.2098 74.8576 85.24C74.7875 85.2702 74.712 85.2859 74.6357 85.2862ZM16.3435 6.9437C15.6787 6.9437 15.041 7.20742 14.5703 7.67702C14.0997 8.14661 13.8345 8.78372 13.833 9.44857V81.6479C13.836 82.3123 14.1016 82.9485 14.572 83.4178C15.0423 83.887 15.6791 84.1512 16.3435 84.1527H74.392L87.4264 70.4553V9.44857C87.4249 8.7847 87.1605 8.14845 86.6911 7.67901C86.2217 7.20958 85.5854 6.9452 84.9215 6.9437H16.3435Z" fill="#093F68"/>
<path d="M74.6357 84.7194V73.8839C74.6372 73.1073 74.9463 72.3629 75.4955 71.8138C76.0446 71.2646 76.789 70.9555 77.5656 70.954H88.0101L74.6357 84.7194Z" fill="#FFBC0E"/>
<path d="M74.6357 85.2862C74.5641 85.2845 74.4933 85.2711 74.426 85.2465C74.3206 85.2045 74.2302 85.1318 74.1665 85.0378C74.1028 84.9439 74.0689 84.833 74.069 84.7195V73.8839C74.0705 72.957 74.4393 72.0685 75.0948 71.4131C75.7502 70.7577 76.6387 70.3888 77.5656 70.3873H88.0101C88.122 70.3866 88.2316 70.4191 88.325 70.4806C88.4185 70.5421 88.4917 70.6299 88.5353 70.733C88.5789 70.836 88.5911 70.9496 88.5702 71.0596C88.5494 71.1695 88.4965 71.2708 88.4182 71.3507L75.0437 85.1105C74.991 85.1657 74.9278 85.2098 74.8576 85.24C74.7875 85.2702 74.712 85.2859 74.6357 85.2862ZM77.5656 71.5094C76.9388 71.5094 76.3378 71.7583 75.8946 72.2015C75.4514 72.6447 75.2024 73.2458 75.2024 73.8726V83.3083L86.667 71.5094H77.5656Z" fill="#093F68"/>
<path d="M74.6357 24.6875H41.7663C41.616 24.6875 41.4719 24.6278 41.3656 24.5215C41.2593 24.4152 41.1996 24.2711 41.1996 24.1208C41.1996 23.9705 41.2593 23.8263 41.3656 23.72C41.4719 23.6138 41.616 23.554 41.7663 23.554H74.6357C74.786 23.554 74.9301 23.6138 75.0364 23.72C75.1427 23.8263 75.2024 23.9705 75.2024 24.1208C75.2024 24.2711 75.1427 24.4152 75.0364 24.5215C74.9301 24.6278 74.786 24.6875 74.6357 24.6875Z" fill="#093F68"/>
<path d="M74.6357 33.6699H27.1168C26.9665 33.6699 26.8223 33.6102 26.716 33.5039C26.6098 33.3976 26.55 33.2535 26.55 33.1032C26.55 32.9529 26.6098 32.8087 26.716 32.7025C26.8223 32.5962 26.9665 32.5365 27.1168 32.5365H74.6357C74.786 32.5365 74.9301 32.5962 75.0364 32.7025C75.1427 32.8087 75.2024 32.9529 75.2024 33.1032C75.2024 33.2535 75.1427 33.3976 75.0364 33.5039C74.9301 33.6102 74.786 33.6699 74.6357 33.6699Z" fill="#093F68"/>
<path d="M74.6357 42.658H27.1168C26.9665 42.658 26.8223 42.5983 26.716 42.492C26.6098 42.3857 26.55 42.2416 26.55 42.0912C26.55 41.9409 26.6098 41.7968 26.716 41.6905C26.8223 41.5842 26.9665 41.5245 27.1168 41.5245H74.6357C74.786 41.5245 74.9301 41.5842 75.0364 41.6905C75.1427 41.7968 75.2024 41.9409 75.2024 42.0912C75.2024 42.2416 75.1427 42.3857 75.0364 42.492C74.9301 42.5983 74.786 42.658 74.6357 42.658Z" fill="#093F68"/>
<path d="M74.6357 51.6404H27.1168C26.9665 51.6404 26.8223 51.5807 26.716 51.4744C26.6098 51.3681 26.55 51.224 26.55 51.0737C26.55 50.9234 26.6098 50.7792 26.716 50.6729C26.8223 50.5667 26.9665 50.507 27.1168 50.507H74.6357C74.786 50.507 74.9301 50.5667 75.0364 50.6729C75.1427 50.7792 75.2024 50.9234 75.2024 51.0737C75.2024 51.224 75.1427 51.3681 75.0364 51.4744C74.9301 51.5807 74.786 51.6404 74.6357 51.6404Z" fill="#093F68"/>
<path d="M74.6357 60.6285H27.1168C26.9665 60.6285 26.8223 60.5687 26.716 60.4625C26.6098 60.3562 26.55 60.212 26.55 60.0617C26.55 59.9114 26.6098 59.7673 26.716 59.661C26.8223 59.5547 26.9665 59.495 27.1168 59.495H74.6357C74.786 59.495 74.9301 59.5547 75.0364 59.661C75.1427 59.7673 75.2024 59.9114 75.2024 60.0617C75.2024 60.212 75.1427 60.3562 75.0364 60.4625C74.9301 60.5687 74.786 60.6285 74.6357 60.6285Z" fill="#093F68"/>
<path d="M56.4328 69.6165H27.1168C26.9665 69.6165 26.8223 69.5568 26.716 69.4505C26.6098 69.3443 26.55 69.2001 26.55 69.0498C26.55 68.8995 26.6098 68.7554 26.716 68.6491C26.8223 68.5428 26.9665 68.4831 27.1168 68.4831H56.4328C56.5831 68.4831 56.7273 68.5428 56.8336 68.6491C56.9398 68.7554 56.9996 68.8995 56.9996 69.0498C56.9996 69.2001 56.9398 69.3443 56.8336 69.4505C56.7273 69.5568 56.5831 69.6165 56.4328 69.6165Z" fill="#093F68"/>
<path d="M32.5742 16.7705C31.8402 16.807 31.1184 16.5726 30.5459 16.1118C29.9733 15.6511 29.59 14.9961 29.4686 14.2713L27.6778 4.16113C27.5879 3.72815 27.5984 3.28034 27.7084 2.85203C27.8184 2.42373 28.0251 2.02631 28.3125 1.69026C28.8545 1.09524 29.5782 0.696374 30.3706 0.555921C31.1631 0.415469 31.9798 0.541329 32.6932 0.913857C33.0784 1.13104 33.4088 1.43337 33.6593 1.79776C33.9097 2.16215 34.0736 2.57896 34.1383 3.01636L34.637 5.84993C34.6501 5.92324 34.6486 5.9984 34.6326 6.07113C34.6166 6.14385 34.5864 6.2127 34.5438 6.27375C34.5011 6.3348 34.4469 6.38685 34.3841 6.42693C34.3214 6.46701 34.2513 6.49433 34.178 6.50732C34.1047 6.52038 34.0295 6.51886 33.9568 6.50285C33.8841 6.48684 33.8152 6.45666 33.7542 6.41403C33.6931 6.3714 33.6411 6.31716 33.601 6.2544C33.5609 6.19164 33.5336 6.1216 33.5206 6.04828L33.0219 3.21471C32.9857 2.9423 32.8871 2.68192 32.7337 2.45387C32.5804 2.22582 32.3765 2.03625 32.1378 1.89994C31.6528 1.65745 31.1025 1.57776 30.5686 1.6727C30.0347 1.76764 29.5456 2.03214 29.1739 2.42698C28.9965 2.63636 28.8699 2.88394 28.804 3.15036C28.7382 3.41679 28.7348 3.69484 28.7942 3.96277L30.5794 14.0729C30.8174 15.3991 31.9848 15.7731 33.0332 15.6201C34.0817 15.4671 35.0451 14.651 34.8127 13.3532L34.4444 11.2847C34.4181 11.1344 34.4525 10.9798 34.5402 10.8549C34.6279 10.7301 34.7616 10.6451 34.9119 10.6188C35.0622 10.5925 35.2168 10.627 35.3417 10.7147C35.4665 10.8024 35.5515 10.9361 35.5778 11.0864L35.9405 13.1549C36.2975 15.1497 34.8524 16.4815 33.2486 16.7648C33.0243 16.7847 32.7988 16.7866 32.5742 16.7705Z" fill="#093F68"/>
<path d="M21.4271 66.7128L15.1181 69.2516L0.943564 34.0267C0.693316 33.4049 0.70036 32.709 0.963146 32.0923C1.22593 31.4757 1.72293 30.9886 2.34482 30.7384L3.95885 30.0889C4.58073 29.8386 5.27656 29.8457 5.89325 30.1085C6.50994 30.3712 6.99698 30.8682 7.24723 31.4901L21.4218 66.7149L21.4271 66.7128Z" fill="#F56132"/>
<path d="M15.1251 69.8375C15.049 69.8389 14.9735 69.8234 14.9041 69.7922C14.7656 69.7347 14.6556 69.6246 14.5981 69.4862L0.43022 34.2763C0.274635 33.9008 0.194553 33.4983 0.194553 33.0918C0.194553 32.6854 0.274635 32.2829 0.43022 31.9074C0.588914 31.5321 0.821084 31.1924 1.11306 30.9082C1.40504 30.624 1.75093 30.4011 2.13036 30.2526L3.73982 29.6009C4.49992 29.2956 5.34983 29.303 6.1045 29.6214C6.85917 29.9399 7.45748 30.5435 7.76916 31.301L21.937 66.5053C21.9931 66.6443 21.9917 66.7999 21.9333 66.938C21.8749 67.0761 21.7641 67.1854 21.6253 67.242L15.3405 69.8092C15.2712 69.8324 15.198 69.8421 15.1251 69.8375ZM4.92426 30.5133C4.67373 30.5131 4.42552 30.5612 4.1932 30.655L2.59507 31.301C2.11326 31.4972 1.72884 31.8764 1.52597 32.3554C1.3231 32.8344 1.3183 33.3743 1.51264 33.8569L15.4708 68.5341L20.7186 66.4203L6.73208 31.7431C6.58554 31.3804 6.33418 31.0697 6.01013 30.8506C5.68608 30.6316 5.30407 30.5141 4.91292 30.5133H4.92426Z" fill="#093F68"/>
<path d="M15.1308 69.2765L21.4326 66.7376L22.107 75.0117L22.3677 78.1682L20.3672 75.7087L15.1308 69.2765Z" fill="white"/>
<path d="M22.3677 78.735C22.284 78.7344 22.2014 78.7153 22.126 78.6791C22.0505 78.6428 21.9841 78.5903 21.9313 78.5253L14.6887 69.6335C14.6325 69.5648 14.5933 69.4837 14.5742 69.397C14.555 69.3103 14.5566 69.2202 14.5786 69.1342C14.6007 69.0482 14.6427 68.9685 14.7012 68.9017C14.7597 68.8349 14.8331 68.7827 14.9154 68.7495L21.2229 66.2106C21.3048 66.1785 21.3929 66.1659 21.4805 66.1738C21.568 66.1817 21.6525 66.2098 21.7273 66.2559C21.8038 66.3021 21.8684 66.3656 21.9157 66.4415C21.9629 66.5173 21.9916 66.6033 21.9993 66.6923L22.9344 78.1229C22.9428 78.243 22.9128 78.3627 22.8486 78.4647C22.7844 78.5666 22.6894 78.6454 22.5774 78.6896C22.5113 78.7188 22.4399 78.7342 22.3677 78.735ZM16.0545 69.5145L21.6536 76.3944L20.9282 67.5424L16.0545 69.5145Z" fill="#093F68"/>
<path d="M20.3672 75.7087L22.107 75.0117L22.3677 78.1683L20.3672 75.7087Z" fill="#093F68"/>
<path d="M22.3677 78.735C22.284 78.7344 22.2014 78.7153 22.126 78.6791C22.0505 78.6428 21.9841 78.5903 21.9313 78.5253L19.9252 76.0714C19.8686 76.0018 19.8293 75.9199 19.8106 75.8322C19.7919 75.7445 19.7943 75.6536 19.8175 75.567C19.8406 75.4816 19.8834 75.4027 19.9424 75.3368C20.0015 75.2709 20.0751 75.2197 20.1575 75.1873L21.8973 74.4846C21.9794 74.4515 22.0682 74.4381 22.1564 74.4455C22.2447 74.4529 22.3299 74.4808 22.4054 74.5271C22.4809 74.5734 22.5445 74.6367 22.5911 74.712C22.6377 74.7873 22.666 74.8724 22.6737 74.9606L22.9344 78.1229C22.9428 78.243 22.9128 78.3627 22.8486 78.4646C22.7844 78.5665 22.6894 78.6454 22.5774 78.6896C22.5113 78.7188 22.4399 78.7342 22.3677 78.735ZM21.2909 75.9467L21.6536 76.3944L21.6083 75.8277L21.2909 75.9467Z" fill="#093F68"/>
</svg>
